<svg xmlns="http://www.w3.org/2000/svg" width="65" height="72" viewBox="0 0 65 72" version="1.1">
	<path d="M 32.123 14.017 C 27.196 15.158, 20.969 19.937, 18.709 24.311 C 14.532 32.397, 15.512 41.097, 21.347 47.743 C 26.328 53.416, 30.875 54.953, 42.750 54.978 C 57.224 55.009, 58.598 53.383, 57.821 37.134 C 57.472 29.847, 56.939 27.572, 54.674 23.707 C 50.247 16.153, 40.671 12.038, 32.123 14.017 M 31.270 22.483 C 29.493 23.255, 27.132 25.375, 26.023 27.193 C 19.557 37.800, 29.984 50.378, 41.586 45.967 C 43.834 45.113, 44.674 45.285, 46.465 46.967 C 47.655 48.085, 49.114 49, 49.707 49 C 51.849 49, 51.823 46.125, 49.660 43.837 C 47.594 41.652, 47.542 41.260, 48.854 37.808 C 49.626 35.777, 49.992 33.422, 49.667 32.574 C 48.728 30.128, 46.035 31.872, 44.386 35.994 C 42.026 41.891, 36.355 43.640, 31.635 39.927 C 26.769 36.100, 28.842 27.853, 35.010 26.498 C 37.577 25.934, 40 23.539, 40 21.566 C 40 20.500, 34.502 21.078, 31.270 22.483 M 42.046 24.444 C 39.345 27.699, 43.815 31.614, 46.811 28.618 C 48.084 27.344, 48.215 26.563, 47.376 25.231 C 45.916 22.913, 43.601 22.571, 42.046 24.444" stroke="none" fill="#cf1717" fill-rule="evenodd"/>
</svg>